<?xml version="1.0" standalone="no"?>
<!DOCTYPE svg PUBLIC "-//W3C//DTD SVG 20010904//EN"
 "http://www.w3.org/TR/2001/REC-SVG-20010904/DTD/svg10.dtd">
<svg version="1.0" xmlns="http://www.w3.org/2000/svg"
 width="600.000000pt" height="600.000000pt" viewBox="0 0 600.000000 600.000000"
 preserveAspectRatio="xMidYMid meet">
<metadata>
Created by potrace 1.11, written by Peter Selinger 2001-2013
</metadata>
<g transform="translate(0.000000,600.000000) scale(0.100000,-0.100000)"
fill="#000000" stroke="none">
<path d="M2985 5986 c-11 -7 -40 -24 -65 -38 -25 -14 -135 -76 -245 -138 -328
-186 -567 -322 -611 -345 -22 -12 -108 -61 -190 -107 -201 -115 -667 -378
-729 -412 -27 -16 -75 -43 -105 -61 -30 -17 -149 -85 -265 -150 -116 -65 -255
-144 -310 -175 l-100 -58 -3 -1500 -2 -1501 92 -52 c101 -57 134 -76 188 -106
79 -46 339 -193 385 -218 28 -15 79 -45 115 -65 36 -20 85 -49 110 -62 25 -14
108 -61 185 -105 77 -43 147 -82 155 -86 8 -4 24 -13 35 -20 20 -12 173 -99
250 -143 22 -12 137 -77 255 -144 261 -148 580 -329 754 -426 l128 -72 110 64
c61 35 112 64 114 64 2 0 47 25 101 57 54 31 269 153 478 271 209 118 400 226
424 240 25 14 67 38 93 53 27 16 50 29 52 29 2 0 41 22 87 48 46 27 104 60
129 74 25 14 115 65 200 113 85 48 187 105 225 127 39 21 77 43 85 48 8 5 94
54 190 108 194 109 243 137 313 177 l47 27 -2 1500 -3 1501 -164 93 c-90 52
-166 94 -168 94 -2 0 -20 10 -41 23 -20 13 -62 37 -92 54 -30 16 -122 68 -205
115 -82 47 -269 153 -415 235 -146 83 -350 199 -455 258 -104 59 -210 119
-235 133 -25 14 -180 101 -345 195 -345 195 -526 297 -529 297 -1 0 -10 -6
-21 -14z"/>
</g>
</svg>
